<svg width="218" height="66" viewBox="0 0 218 66" fill="none" xmlns="http://www.w3.org/2000/svg">
<path d="M19.4888 30.4829C20.7222 25.8805 25.453 21.1497 30.0554 19.9163L58.7489 12.2267C63.3513 10.9933 66.0824 13.7245 64.849 18.3269L57.1595 47.0203C55.9261 51.6227 51.1952 56.3536 46.5928 57.587L17.8994 65.2765C13.2969 66.5099 10.5658 63.7788 11.7992 59.1764L19.4888 30.4829Z" fill="#9E77ED"/>
<path d="M7.98575 18.9796C9.21915 14.3772 13.95 9.64639 18.5524 8.413L47.2459 0.723445C51.8483 -0.509951 54.5794 2.22117 53.346 6.82358L45.6565 35.517C44.4231 40.1194 39.6922 44.8503 35.0898 46.0837L6.39633 53.7732C1.79393 55.0066 -0.937198 52.2755 0.296199 47.6731L7.98575 18.9796Z" fill="#6941C6"/>
<path d="M91.5105 44.1416H101.381V48.0056H86.7225V18.8156H91.5105V44.1416Z" fill="#101828"/>
<path d="M103.789 36.3296C103.789 34.0056 104.265 31.9476 105.217 30.1556C106.197 28.3636 107.513 26.9776 109.165 25.9976C110.845 24.9896 112.693 24.4856 114.709 24.4856C116.529 24.4856 118.111 24.8496 119.455 25.5776C120.827 26.2776 121.919 27.1596 122.731 28.2236V24.8636H127.561V48.0056H122.731V44.5616C121.919 45.6536 120.813 46.5636 119.413 47.2916C118.013 48.0196 116.417 48.3836 114.625 48.3836C112.637 48.3836 110.817 47.8796 109.165 46.8716C107.513 45.8356 106.197 44.4076 105.217 42.5876C104.265 40.7396 103.789 38.6536 103.789 36.3296ZM122.731 36.4136C122.731 34.8176 122.395 33.4316 121.723 32.2556C121.079 31.0796 120.225 30.1836 119.161 29.5676C118.097 28.9516 116.949 28.6436 115.717 28.6436C114.485 28.6436 113.337 28.9516 112.273 29.5676C111.209 30.1556 110.341 31.0376 109.669 32.2136C109.025 33.3616 108.703 34.7336 108.703 36.3296C108.703 37.9256 109.025 39.3256 109.669 40.5296C110.341 41.7336 111.209 42.6576 112.273 43.3016C113.365 43.9176 114.513 44.2256 115.717 44.2256C116.949 44.2256 118.097 43.9176 119.161 43.3016C120.225 42.6856 121.079 41.7896 121.723 40.6136C122.395 39.4096 122.731 38.0096 122.731 36.4136Z" fill="#101828"/>
<path d="M154.681 24.8636L140.485 58.8836H135.529L140.233 47.6276L131.119 24.8636H136.453L142.963 42.5036L149.725 24.8636H154.681Z" fill="#101828"/>
<path d="M179.505 35.8676C179.505 36.7356 179.449 37.5196 179.337 38.2196H161.655C161.795 40.0676 162.481 41.5516 163.713 42.6716C164.945 43.7916 166.457 44.3516 168.249 44.3516C170.825 44.3516 172.645 43.2736 173.709 41.1176H178.875C178.175 43.2456 176.901 44.9956 175.053 46.3676C173.233 47.7116 170.965 48.3836 168.249 48.3836C166.037 48.3836 164.049 47.8936 162.285 46.9136C160.549 45.9056 159.177 44.5056 158.169 42.7136C157.189 40.8936 156.699 38.7936 156.699 36.4136C156.699 34.0336 157.175 31.9476 158.127 30.1556C159.107 28.3356 160.465 26.9356 162.201 25.9556C163.965 24.9756 165.981 24.4856 168.249 24.4856C170.433 24.4856 172.379 24.9616 174.087 25.9136C175.795 26.8656 177.125 28.2096 178.077 29.9456C179.029 31.6536 179.505 33.6276 179.505 35.8676ZM174.507 34.3556C174.479 32.5916 173.849 31.1776 172.617 30.1136C171.385 29.0496 169.859 28.5176 168.039 28.5176C166.387 28.5176 164.973 29.0496 163.797 30.1136C162.621 31.1496 161.921 32.5636 161.697 34.3556H174.507Z" fill="#101828"/>
<path d="M189.005 28.2236C189.705 27.0476 190.629 26.1376 191.777 25.4936C192.953 24.8216 194.339 24.4856 195.935 24.4856V29.4416H194.717C192.841 29.4416 191.413 29.9176 190.433 30.8696C189.481 31.8216 189.005 33.4736 189.005 35.8256V48.0056H184.217V24.8636H189.005V28.2236Z" fill="#101828"/>
<path d="M208.736 48.3836C206.916 48.3836 205.278 48.0616 203.822 47.4176C202.394 46.7456 201.26 45.8496 200.42 44.7296C199.58 43.5816 199.132 42.3076 199.076 40.9076H204.032C204.116 41.8876 204.578 42.7136 205.418 43.3856C206.286 44.0296 207.364 44.3516 208.652 44.3516C209.996 44.3516 211.032 44.0996 211.76 43.5956C212.516 43.0636 212.894 42.3916 212.894 41.5796C212.894 40.7116 212.474 40.0676 211.634 39.6476C210.822 39.2276 209.52 38.7656 207.728 38.2616C205.992 37.7856 204.578 37.3236 203.486 36.8756C202.394 36.4276 201.442 35.7416 200.63 34.8176C199.846 33.8936 199.454 32.6756 199.454 31.1636C199.454 29.9316 199.818 28.8116 200.546 27.8036C201.274 26.7676 202.31 25.9556 203.654 25.3676C205.026 24.7796 206.594 24.4856 208.358 24.4856C210.99 24.4856 213.104 25.1576 214.7 26.5016C216.324 27.8176 217.192 29.6236 217.304 31.9196H212.516C212.432 30.8836 212.012 30.0576 211.256 29.4416C210.5 28.8256 209.478 28.5176 208.19 28.5176C206.93 28.5176 205.964 28.7556 205.292 29.2316C204.62 29.7076 204.284 30.3376 204.284 31.1216C204.284 31.7376 204.508 32.2556 204.956 32.6756C205.404 33.0956 205.95 33.4316 206.594 33.6836C207.238 33.9076 208.19 34.2016 209.45 34.5656C211.13 35.0136 212.502 35.4756 213.566 35.9516C214.658 36.3996 215.596 37.0716 216.38 37.9676C217.164 38.8636 217.57 40.0536 217.598 41.5376C217.598 42.8536 217.234 44.0296 216.506 45.0656C215.778 46.1016 214.742 46.9136 213.398 47.5016C212.082 48.0896 210.528 48.3836 208.736 48.3836Z" fill="#101828"/>
</svg>
