<svg width="253" height="72" viewBox="0 0 253 72" fill="none" xmlns="http://www.w3.org/2000/svg">
<path d="M0.597656 28.8H14.9976V43.2H0.597656V28.8Z" fill="#039855"/>
<path d="M43.7976 43.2001H29.3976V28.8001H43.7976V43.2001Z" fill="#027A48"/>
<path d="M14.9976 28.8L29.3976 14.4L29.3976 28.8001L14.9976 43.2V28.8Z" fill="#A6F4C5"/>
<path d="M29.3976 43.2001L14.9976 57.5999L14.9976 43.2L29.3976 28.8001V43.2001Z" fill="#6CE9A6"/>
<path d="M0.597656 28.8L29.3976 0L29.3976 14.4L14.9976 28.8H0.597656Z" fill="#32D583"/>
<path d="M43.7976 43.2001L14.9976 72L14.9976 57.5999L29.3976 43.2001H43.7976Z" fill="#12B76A"/>
<path d="M75.1596 51.42C72.8916 51.42 70.6936 51.098 68.5657 50.454C66.4657 49.81 64.7997 48.956 63.5676 47.892L65.4576 43.65C66.6617 44.602 68.1316 45.386 69.8676 46.002C71.6316 46.59 73.3956 46.884 75.1596 46.884C77.3436 46.884 78.9676 46.534 80.0316 45.834C81.1236 45.134 81.6696 44.21 81.6696 43.062C81.6696 42.222 81.3616 41.536 80.7456 41.004C80.1576 40.444 79.4016 40.01 78.4776 39.702C77.5536 39.394 76.2936 39.044 74.6976 38.652C72.4576 38.12 70.6376 37.588 69.2376 37.056C67.8656 36.524 66.6757 35.698 65.6676 34.578C64.6877 33.43 64.1977 31.89 64.1977 29.958C64.1977 28.334 64.6317 26.864 65.4996 25.548C66.3956 24.204 67.7256 23.14 69.4896 22.356C71.2816 21.572 73.4656 21.18 76.0416 21.18C77.8336 21.18 79.5976 21.404 81.3336 21.852C83.0696 22.3 84.5676 22.944 85.8276 23.784L84.1056 28.026C82.8176 27.27 81.4736 26.696 80.0736 26.304C78.6736 25.912 77.3156 25.716 75.9996 25.716C73.8436 25.716 72.2337 26.08 71.1696 26.808C70.1336 27.536 69.6156 28.502 69.6156 29.706C69.6156 30.546 69.9097 31.232 70.4977 31.764C71.1136 32.296 71.8837 32.716 72.8076 33.024C73.7316 33.332 74.9916 33.682 76.5876 34.074C78.7716 34.578 80.5636 35.11 81.9636 35.67C83.3636 36.202 84.5536 37.028 85.5336 38.148C86.5416 39.268 87.0456 40.78 87.0456 42.684C87.0456 44.308 86.5976 45.778 85.7016 47.094C84.8336 48.41 83.5036 49.46 81.7116 50.244C79.9196 51.028 77.7356 51.42 75.1596 51.42Z" fill="#101828"/>
<path d="M91.9557 28.572H97.2057V51H91.9557V28.572ZM94.6017 24.876C93.6497 24.876 92.8517 24.582 92.2077 23.994C91.5637 23.378 91.2417 22.622 91.2417 21.726C91.2417 20.83 91.5637 20.088 92.2077 19.5C92.8517 18.884 93.6497 18.576 94.6017 18.576C95.5537 18.576 96.3517 18.87 96.9957 19.458C97.6397 20.018 97.9617 20.732 97.9617 21.6C97.9617 22.524 97.6397 23.308 96.9957 23.952C96.3797 24.568 95.5817 24.876 94.6017 24.876Z" fill="#101828"/>
<path d="M111.026 51.294C109.206 51.294 107.428 51.056 105.692 50.58C103.956 50.104 102.57 49.502 101.534 48.774L103.55 44.784C104.558 45.456 105.762 46.002 107.162 46.422C108.59 46.814 109.99 47.01 111.362 47.01C114.498 47.01 116.066 46.184 116.066 44.532C116.066 43.748 115.66 43.202 114.848 42.894C114.064 42.586 112.79 42.292 111.026 42.012C109.178 41.732 107.666 41.41 106.49 41.046C105.342 40.682 104.334 40.052 103.466 39.156C102.626 38.232 102.206 36.958 102.206 35.334C102.206 33.206 103.088 31.512 104.852 30.252C106.644 28.964 109.052 28.32 112.076 28.32C113.616 28.32 115.156 28.502 116.696 28.866C118.236 29.202 119.496 29.664 120.476 30.252L118.46 34.242C116.556 33.122 114.414 32.562 112.034 32.562C110.494 32.562 109.318 32.8 108.506 33.276C107.722 33.724 107.33 34.326 107.33 35.082C107.33 35.922 107.75 36.524 108.59 36.888C109.458 37.224 110.788 37.546 112.58 37.854C114.372 38.134 115.842 38.456 116.99 38.82C118.138 39.184 119.118 39.8 119.93 40.668C120.77 41.536 121.19 42.768 121.19 44.364C121.19 46.464 120.28 48.144 118.46 49.404C116.64 50.664 114.162 51.294 111.026 51.294Z" fill="#101828"/>
<path d="M146.301 28.572L135.801 52.806C134.821 55.242 133.631 56.95 132.231 57.93C130.831 58.938 129.137 59.442 127.149 59.442C126.029 59.442 124.923 59.26 123.831 58.896C122.739 58.532 121.843 58.028 121.143 57.384L123.243 53.52C123.747 53.996 124.335 54.374 125.007 54.654C125.707 54.934 126.407 55.074 127.107 55.074C128.031 55.074 128.787 54.836 129.375 54.36C129.991 53.884 130.551 53.086 131.055 51.966L131.433 51.084L121.647 28.572H127.107L134.163 45.162L141.261 28.572H146.301Z" fill="#101828"/>
<path d="M162.015 28.32C164.199 28.32 166.145 28.796 167.853 29.748C169.589 30.7 170.947 32.044 171.927 33.78C172.907 35.516 173.397 37.518 173.397 39.786C173.397 42.054 172.907 44.07 171.927 45.834C170.947 47.57 169.589 48.914 167.853 49.866C166.145 50.818 164.199 51.294 162.015 51.294C158.991 51.294 156.597 50.286 154.833 48.27V59.148H149.583V28.572H154.581V31.512C155.449 30.448 156.513 29.65 157.773 29.118C159.061 28.586 160.475 28.32 162.015 28.32ZM161.427 46.8C163.359 46.8 164.941 46.156 166.173 44.868C167.433 43.58 168.063 41.886 168.063 39.786C168.063 37.686 167.433 35.992 166.173 34.704C164.941 33.416 163.359 32.772 161.427 32.772C160.167 32.772 159.033 33.066 158.025 33.654C157.017 34.214 156.219 35.026 155.631 36.09C155.043 37.154 154.749 38.386 154.749 39.786C154.749 41.186 155.043 42.418 155.631 43.482C156.219 44.546 157.017 45.372 158.025 45.96C159.033 46.52 160.167 46.8 161.427 46.8Z" fill="#101828"/>
<path d="M191.102 28.32C193.93 28.32 196.198 29.146 197.906 30.798C199.614 32.45 200.468 34.9 200.468 38.148V51H195.218V38.82C195.218 36.86 194.756 35.39 193.832 34.41C192.908 33.402 191.592 32.898 189.884 32.898C187.952 32.898 186.426 33.486 185.306 34.662C184.186 35.81 183.626 37.476 183.626 39.66V51H178.376V19.836H183.626V31.176C184.494 30.252 185.558 29.552 186.818 29.076C188.106 28.572 189.534 28.32 191.102 28.32Z" fill="#101828"/>
<path d="M228.842 28.572V51H223.844V48.144C223.004 49.152 221.954 49.936 220.694 50.496C219.434 51.028 218.076 51.294 216.62 51.294C213.624 51.294 211.258 50.468 209.522 48.816C207.814 47.136 206.96 44.658 206.96 41.382V28.572H212.21V40.668C212.21 42.684 212.658 44.196 213.554 45.204C214.478 46.184 215.78 46.674 217.46 46.674C219.335 46.674 220.82 46.1 221.912 44.952C223.032 43.776 223.592 42.096 223.592 39.912V28.572H228.842Z" fill="#101828"/>
<path d="M242.645 51.294C240.825 51.294 239.047 51.056 237.311 50.58C235.575 50.104 234.189 49.502 233.153 48.774L235.169 44.784C236.177 45.456 237.381 46.002 238.781 46.422C240.209 46.814 241.609 47.01 242.981 47.01C246.117 47.01 247.685 46.184 247.685 44.532C247.685 43.748 247.279 43.202 246.467 42.894C245.683 42.586 244.409 42.292 242.645 42.012C240.797 41.732 239.285 41.41 238.109 41.046C236.961 40.682 235.953 40.052 235.085 39.156C234.245 38.232 233.825 36.958 233.825 35.334C233.825 33.206 234.707 31.512 236.471 30.252C238.263 28.964 240.671 28.32 243.695 28.32C245.235 28.32 246.775 28.502 248.315 28.866C249.855 29.202 251.115 29.664 252.095 30.252L250.079 34.242C248.175 33.122 246.033 32.562 243.653 32.562C242.113 32.562 240.937 32.8 240.125 33.276C239.341 33.724 238.949 34.326 238.949 35.082C238.949 35.922 239.369 36.524 240.209 36.888C241.077 37.224 242.407 37.546 244.199 37.854C245.991 38.134 247.461 38.456 248.609 38.82C249.757 39.184 250.737 39.8 251.549 40.668C252.389 41.536 252.809 42.768 252.809 44.364C252.809 46.464 251.899 48.144 250.079 49.404C248.259 50.664 245.781 51.294 242.645 51.294Z" fill="#101828"/>
</svg>
